<svg width="85" height="22" viewBox="0 0 85 22" fill="none" xmlns="http://www.w3.org/2000/svg">
<path fill-rule="evenodd" clip-rule="evenodd" d="M49.7152 0.067382C49.2513 0.196228 48.908 0.392751 48.5392 0.740625C47.4605 1.75823 47.4239 3.3682 48.455 4.442C49.5092 5.53984 51.2192 5.52815 52.2684 4.41594C52.638 4.02417 52.8379 3.64896 52.9441 3.14826C53.0347 2.72072 53.0342 2.54132 52.941 2.09844C52.7958 1.40797 52.3091 0.712374 51.7365 0.376744C51.1634 0.0409111 50.2911 -0.0926086 49.7152 0.067382ZM41.5189 0.175703C41.5 0.194603 41.4845 4.91633 41.4845 10.6684V21.1267L43.6056 21.1134L45.7268 21.1002V10.634V0.167777L43.6401 0.154517C42.4924 0.147252 41.5378 0.156752 41.5189 0.175703ZM70.1632 0.205324C70.1498 0.240533 70.1447 4.95632 70.1519 10.6848L70.1649 21.1002L72.2857 21.1134L74.4065 21.1267L74.4196 18.0438L74.4327 14.9609L76.9984 18.0401L79.5642 21.1194L82.1172 21.1225C83.5214 21.1242 84.6702 21.1121 84.6702 21.0957C84.6702 21.0792 83.2512 19.3621 81.5168 17.2799C79.7824 15.1976 78.3744 13.4652 78.3879 13.4301C78.4013 13.395 79.5264 11.9971 80.888 10.3235C82.2496 8.64997 83.386 7.25218 83.4134 7.21722C83.4532 7.16662 82.9541 7.15371 80.9535 7.15371H78.4437L76.4382 9.61372L74.4327 12.0738L74.4073 6.12076L74.3819 0.167777L72.2847 0.154517C70.6341 0.144051 70.1824 0.154873 70.1632 0.205324ZM9.68448 0.271778C7.03719 0.846048 3.63755 3.51716 1.57215 6.64564C0.258948 8.63478 -0.207611 10.289 0.124767 11.7771C0.530815 13.5951 1.83797 15.6777 3.80892 17.6469C5.74964 19.5859 7.83953 20.8947 9.65399 21.3074C10.1726 21.4254 11.0831 21.4268 11.6018 21.3104C13.3818 20.9109 15.5716 19.5422 17.4734 17.6404C19.322 15.7918 20.7038 13.6179 21.1113 11.9166C21.4578 10.4705 21.1366 9.0454 20.0516 7.21473C18.0906 3.90609 14.3434 0.847113 11.5487 0.273555C11.0692 0.175142 10.1341 0.17428 9.68448 0.271778ZM9.99938 6.66708C8.52202 7.14558 6.79758 8.94658 6.44366 10.3807C6.37111 10.6748 6.36765 10.7764 6.41983 11.0808C6.66371 12.5032 8.50494 14.4562 10.0525 14.9342C10.9751 15.2191 12.0261 14.7906 13.2161 13.6445C14.0455 12.8455 14.5844 12.0587 14.7876 11.3496C15.0596 10.4008 14.5696 9.28907 13.3411 8.06823C12.555 7.28698 11.806 6.79913 11.1171 6.61968C10.7178 6.51568 10.429 6.52792 9.99938 6.66708ZM31.6025 6.92066C30.7577 7.0618 30.0844 7.28642 29.2908 7.69175C27.2456 8.73639 25.8432 10.7795 25.5274 13.1743C25.4352 13.8739 25.4941 15.129 25.6502 15.7909C26.3307 18.6756 28.4328 20.7081 31.3351 21.2873C31.8056 21.3812 32.0745 21.4014 32.8473 21.4008C34.2438 21.3998 35.1244 21.2098 36.228 20.6713C37.6179 19.993 38.682 18.9201 39.3798 17.4929C39.6472 16.9462 40.0111 15.9338 40.0111 15.7366C40.0111 15.6395 39.9645 15.6376 37.8437 15.6506L35.6763 15.6639L35.4685 16.0152C34.7409 17.2453 33.5921 17.7924 32.2452 17.5502C31.0622 17.3375 30.2124 16.5273 29.8671 15.2828C29.7382 14.8183 29.7357 13.4688 29.8629 12.9965C30.0983 12.1223 30.6445 11.3772 31.3071 11.0265C32.2154 10.5457 33.4674 10.5446 34.3132 11.0236C34.7009 11.2432 35.1614 11.7242 35.4381 12.1986L35.6665 12.59H37.8388C39.874 12.59 40.011 12.5845 40.0103 12.5011C40.0088 12.3244 39.6068 11.2205 39.3743 10.7548C38.3795 8.7618 36.714 7.46887 34.534 6.99733C33.8997 6.86015 32.2267 6.81635 31.6025 6.92066ZM60.5116 6.88012C57.2884 7.34917 54.9535 9.49362 54.2776 12.6059C54.1268 13.3004 54.1128 14.8707 54.2516 15.5368C54.3953 16.2264 54.6395 16.9375 54.9271 17.5036C56.2917 20.1893 59.1885 21.7071 62.3311 21.3828C64.9161 21.1161 66.9022 19.7711 68.0284 17.5245C68.2766 17.0292 68.6641 15.9517 68.6653 15.7528L68.6661 15.6384H66.5044H64.3428L64.2562 15.7975C63.6241 16.9591 62.8597 17.5009 61.7219 17.594C60.6316 17.6832 59.5615 17.186 58.9896 16.3244C58.243 15.1995 58.201 13.2742 58.8972 12.0843C59.4644 11.1147 60.4613 10.6083 61.6755 10.6729C62.7626 10.7307 63.5657 11.2428 64.1231 12.2338L64.3221 12.5877L66.4997 12.5889L68.6774 12.59L68.6427 12.3995C68.582 12.0661 68.3143 11.3189 68.0826 10.8362C67.731 10.1037 67.2811 9.47187 66.6876 8.87728C65.9153 8.10359 65.1556 7.62398 64.129 7.26173C63.3087 6.97228 62.8043 6.89251 61.6802 6.87432C61.1213 6.86533 60.5954 6.86792 60.5116 6.88012ZM48.2418 14.1396V21.1256H50.3502H52.4587V14.1396V7.15371H50.3502H48.2418V14.1396Z" fill="white"/>
</svg>
