<svg width="29" height="29" viewBox="0 0 29 29" fill="none" xmlns="http://www.w3.org/2000/svg">
<path d="M21.7628 4.99609C20.7965 4.99609 20.1523 5.65535 20.1523 6.64424C20.1523 7.63313 20.9576 8.29239 21.7628 8.29239C22.7291 8.29239 23.3733 7.63313 23.3733 6.64424C23.3733 5.82017 22.7291 4.99609 21.7628 4.99609Z" fill="black"/>
<path d="M14.678 7.14258C10.974 7.14258 7.91406 10.2741 7.91406 14.0648C7.91406 17.8555 10.974 20.987 14.678 20.987C18.3821 20.987 21.442 17.8555 21.442 14.0648C21.442 10.2741 18.3821 7.14258 14.678 7.14258ZM14.678 18.5148C12.2623 18.5148 10.3298 16.537 10.3298 14.0648C10.3298 11.5926 12.2623 9.6148 14.678 9.6148C17.0937 9.6148 19.0263 11.5926 19.0263 14.0648C19.0263 16.537 17.0937 18.5148 14.678 18.5148Z" fill="black"/>
<path d="M19.9927 28.2382H9.04151C4.5322 28.2382 0.828125 24.4475 0.828125 19.8327V8.62528C0.828125 4.01047 4.5322 0.219727 9.04151 0.219727H19.9927C24.502 0.219727 28.2061 4.01047 28.2061 8.62528V19.6679C28.3671 24.4475 24.663 28.2382 19.9927 28.2382ZM9.04151 2.69195C5.82058 2.69195 3.40488 5.32898 3.40488 8.46046V19.6679C3.40488 22.9642 5.98163 25.4364 9.04151 25.4364H19.9927C23.2136 25.4364 25.6293 22.7993 25.6293 19.6679V8.46046C25.6293 5.16417 23.0526 2.69195 19.9927 2.69195H9.04151Z" fill="black"/>
</svg>
