<svg width="94" height="46" viewBox="0 0 94 46" fill="none" xmlns="http://www.w3.org/2000/svg">
<rect x="0.0224609" y="23.3707" width="93.8011" height="21.7441" rx="1.84374" fill="#F7971D"/>
<path d="M93.554 2.75148L89.9047 6.1691C88.6593 5.01058 87.4718 4.69199 85.5603 4.69199H80.8103C79.1015 4.69199 78.0589 5.12643 78.0589 6.02428C78.0589 6.69043 78.4643 7.06695 80.3759 7.38554L88.138 8.08065C92.5982 8.7468 93.8436 11.5852 93.8436 14.4525C93.8436 18.1597 90.8605 20.5637 85.9078 20.5637H81.042C76.4949 20.5637 73.4538 19.1155 72.0056 16.364L76.6107 13.4388C77.7692 15.4083 79.1595 15.9006 81.1289 15.9006H85.9947C87.7035 15.9006 88.6014 15.3503 88.6014 14.3366C88.6014 13.3519 87.8483 12.9754 86.4871 12.7147L78.2037 11.8169C74.2358 11.1797 72.8166 8.83368 72.8166 6.19806C72.8166 2.28807 75.8287 0 81.042 0H85.7051C89.2965 0 91.9321 0.955775 93.554 2.75148Z" fill="white"/>
<path d="M49.5217 0.260622H70.6357V5.35809H62.7867V20.3029H57.3707V5.35809H49.5217V0.260622Z" fill="white"/>
<path d="M32.3569 0.260622H37.802V15.1765H51.5304V20.3029H32.3569V0.260622Z" fill="white"/>
<path d="M9.64478 0.260622H28.7603V5.12639H15.0319V7.87786H27.1384V12.6857H15.0319V15.4372H28.7603V20.3029H9.64478V0.260622Z" fill="white"/>
<path d="M5.44502 20.3029H0V0.260622H5.44502V20.3029Z" fill="white"/>
<path d="M89.0692 27.656L83.8768 34.1939L89.2208 40.7696H84.8623L81.2428 36.051L77.6422 40.7696H73.2837L78.6087 34.1939L73.4353 27.656H77.7749L81.2428 32.2609L84.7107 27.656H89.0692Z" fill="black"/>
<path d="M73.006 27.656L67.8136 34.1939L73.1576 40.7696H68.799L65.1795 36.051L61.579 40.7696H57.2205L62.5455 34.1939L57.3721 27.656H61.7117L65.1795 32.2609L68.6474 27.656H73.006Z" fill="black"/>
<path d="M56.9427 27.656L51.7504 34.1939L57.0943 40.7696H52.7358L49.1163 36.051L45.5158 40.7696H41.1572L46.4822 34.1939L41.3088 27.656H45.6484L49.1163 32.2609L52.5842 27.656H56.9427Z" fill="black"/>
<path d="M33.7965 27.656L40.6186 40.7696H36.8096L35.6726 38.3629H28.2441L27.1071 40.7696H23.2981L30.1202 27.656H33.7965ZM34.1945 35.3688L31.9583 30.9913L29.7222 35.3688H34.1945Z" fill="black"/>
<path d="M7.82074 27.6561L13.0889 34.2697L18.3381 27.6561H21.6923V40.7696H18.2054V33.0948L14.0175 38.4198H12.1603L7.97234 33.0948V40.7696H4.46655V27.6561H7.82074Z" fill="black"/>
</svg>
