<svg width="80" height="24" viewBox="0 0 80 24" fill="none" xmlns="http://www.w3.org/2000/svg">
<path fill-rule="evenodd" clip-rule="evenodd" d="M0.741039 0.647825C0.458553 0.726068 0.133797 1.06627 0.0593647 1.36202C0.0162297 1.53329 0.000277064 2.87773 0.000988359 6.28743L0.00195277 10.9773L0.251211 11.4468C0.733774 12.3558 1.4848 13.2936 2.26072 13.9562C2.73815 14.3639 3.68047 15.0164 3.79184 15.0164C3.84849 15.0164 3.86154 14.8118 3.86246 13.9113C3.86368 12.6935 3.89314 12.5486 4.19788 12.2628C4.49195 11.9871 4.60896 11.968 6.0063 11.9679C6.71277 11.9679 7.54229 11.9449 7.84967 11.9167C11.7976 11.5548 13.8754 9.54262 13.8826 6.0744C13.885 4.90731 13.6246 3.85165 13.1275 3.01288C12.7975 2.45619 12.1447 1.80297 11.6275 1.51184C10.9185 1.11281 9.90405 0.813962 8.815 0.683338C8.17088 0.606112 1.00559 0.574613 0.741039 0.647825ZM44.4814 2.85909C43.3073 3.02142 42.6955 3.59757 42.4351 4.78584C42.3548 5.1522 42.3475 5.71956 42.3475 11.6377C42.3475 17.6932 42.3532 18.1167 42.4402 18.5206C42.6689 19.5818 43.1547 20.0573 44.2762 20.3176C44.7353 20.4242 44.7381 20.4242 57.905 20.4396C72.6542 20.4568 71.4439 20.4875 72.2727 20.0751C72.9464 19.7399 73.4916 19.2994 74.4575 18.31C75.8437 16.89 77.9031 14.6282 78.6199 13.7385C79.1922 13.0281 79.4088 12.4775 79.4103 11.7291C79.4118 10.99 79.2353 10.5148 78.6881 9.78502C77.5644 8.28658 75.3234 5.59758 74.4583 4.70973C73.4428 3.66753 72.6621 3.14092 71.8092 2.92275C71.4247 2.82444 71.1934 2.82292 58.026 2.83038C50.6603 2.83455 44.5652 2.84746 44.4814 2.85909ZM4.18589 3.7323C4.12691 3.75832 4.02971 3.84179 3.96996 3.91775C3.86281 4.05396 3.86134 4.08546 3.86154 6.24638C3.8617 8.32804 3.86662 8.44499 3.96072 8.59929C4.16649 8.93675 4.15074 8.93421 5.85556 8.905C6.70083 8.89057 7.55245 8.85323 7.74806 8.82208C9.20266 8.59035 9.91787 7.80925 9.99575 6.3673C10.0742 4.91499 9.49475 4.09618 8.18383 3.80699C7.78408 3.71884 4.36143 3.65487 4.18589 3.7323ZM19.5352 5.262C17.2098 5.4666 15.7549 6.22992 15.0655 7.60709C14.6824 8.37224 14.6436 8.84255 14.9429 9.09435L15.0974 9.22442H16.3867C17.3027 9.22442 17.7159 9.20623 17.814 9.16157C17.9161 9.11498 18.007 8.98003 18.1645 8.6408C18.3127 8.32138 18.4426 8.12359 18.5941 7.98677C19.3087 7.34121 20.9507 7.19647 21.9332 7.69244C22.267 7.86097 22.4436 8.06008 22.6503 8.50118C22.7668 8.74978 22.7869 8.85968 22.7869 9.24982C22.7869 9.63651 22.7685 9.73914 22.6678 9.91488C22.4464 10.3011 22.4074 10.3104 20.8308 10.3504C20.0624 10.3699 19.1593 10.4223 18.8239 10.4669C17.6894 10.6176 16.6356 10.9243 16.0281 11.2803C15.7405 11.4488 15.101 12.0476 14.8646 12.3696C13.9816 13.5724 13.8092 15.4582 14.4676 16.7111C14.8222 17.386 15.5708 18.0485 16.3412 18.3692C17.7534 18.9571 20.0859 18.8935 21.5054 18.2283C21.7391 18.1187 22.1541 17.8885 22.4275 17.7167C22.7008 17.5449 22.9335 17.4043 22.9446 17.4043C22.9557 17.4043 22.9653 17.4901 22.9659 17.5948C22.9681 17.9356 23.0538 18.1854 23.2192 18.3337L23.3776 18.4756L24.8679 18.4607C26.5365 18.4441 26.5171 18.4484 26.6222 18.0699C26.6924 17.817 26.6909 9.73615 26.6205 9.08272C26.4719 7.70484 26.0231 6.88284 25.0748 6.25181C24.3159 5.74685 23.5655 5.48285 22.4704 5.33551C21.7814 5.24279 20.2027 5.20326 19.5352 5.262ZM28.0548 5.56577C27.8305 5.61886 27.6476 5.79862 27.6091 6.00383C27.5755 6.18287 27.6406 6.36522 30.445 13.9495C32.0856 18.3863 32.0202 18.1984 32.0192 18.4684C32.0181 18.7681 31.859 19.1838 31.5784 19.6198C31.4552 19.8114 31.3638 19.9776 31.3754 19.9891C31.4347 20.0485 32.5416 19.53 33.0617 19.1993C34.2577 18.4386 35.6863 17.0126 36.5396 15.7277C37.1505 14.8078 37.1288 14.8625 39.5068 8.22089C39.9629 6.94701 40.239 6.1029 40.239 5.98244C40.239 5.72093 40.1485 5.61525 39.8804 5.56348C39.5476 5.49926 37.4066 5.50567 37.1652 5.57161C36.9009 5.64381 36.6758 5.8166 36.5675 6.03035C36.5024 6.15884 35.0476 10.1394 33.9266 13.2566C33.8795 13.3874 33.767 13.0967 32.7969 10.3352C32.2043 8.64843 31.6249 6.99542 31.5092 6.66183C31.3438 6.18445 31.2585 6.01378 31.1084 5.86009C30.81 5.55459 30.5995 5.51466 29.319 5.5207C28.7163 5.5236 28.1474 5.54387 28.0548 5.56577ZM50.9084 5.92279C50.0374 6.02425 49.1199 6.40363 48.446 6.94101C47.1524 7.97264 45.9687 9.37013 45.3716 10.5708C44.8253 11.6691 44.8439 11.5325 44.8239 14.5986L44.8066 17.2547L44.96 17.408L45.1133 17.5614L46.4911 17.5464L47.869 17.5313L47.9915 17.3888L48.1141 17.2462V13.6382V10.0302L48.2766 9.79402C48.5961 9.32964 49.1656 8.78799 49.5508 8.58217C49.9075 8.39154 49.9321 8.38611 50.4339 8.38611C50.9254 8.38611 50.9607 8.39342 51.1706 8.53924C51.426 8.71666 51.5781 8.99294 51.6932 9.48846C51.7608 9.77969 51.7722 10.3601 51.7722 13.5125C51.7722 16.1041 51.7889 17.233 51.8286 17.3201C51.9281 17.5385 52.0533 17.5567 53.4551 17.5567H54.7776L54.9261 17.4082L55.0746 17.2597V13.6079V9.95609L55.4487 9.5002C56.0487 8.76899 56.6127 8.39993 57.2316 8.33367C57.9356 8.25828 58.3786 8.55103 58.6181 9.24982C58.6964 9.4782 58.7079 9.89741 58.7317 13.4019L58.7581 17.3L58.8737 17.4156C58.9864 17.5284 59.0197 17.5317 60.1693 17.5473C61.531 17.5658 61.7469 17.5447 61.9145 17.3771L62.0351 17.2565L62.0349 13.304C62.0347 8.98405 62.0257 8.823 61.7398 8.01502C61.5429 7.45868 61.3071 7.0853 60.9278 6.7293C60.5763 6.39956 60.2157 6.19674 59.6726 6.02334C59.1688 5.86248 58.0694 5.82194 57.5501 5.94514C56.7706 6.13003 55.8904 6.67504 55.1085 7.4569C54.8879 7.67751 54.7027 7.85111 54.6969 7.84263C54.6912 7.83414 54.6218 7.69224 54.5427 7.52732C54.3284 7.07997 53.7741 6.52129 53.3273 6.30222C52.6441 5.96725 51.7418 5.8257 50.9084 5.92279ZM68.0532 6.04356C66.7977 6.28382 65.9175 6.75297 65.1014 7.61705C64.8541 7.8789 64.545 8.27341 64.4147 8.49366C63.2321 10.492 63.2798 13.324 64.5271 15.1749C65.019 15.9048 65.8782 16.6084 66.6909 16.9466C67.4593 17.2666 67.956 17.3619 68.9957 17.3893C69.8192 17.4109 69.9945 17.4009 70.4114 17.3085C71.892 16.9803 73.1007 16.0506 73.7979 14.7035C74.0651 14.1871 74.0846 14.0033 73.8883 13.8489C73.7564 13.7451 73.7079 13.7415 72.6471 13.7562C71.3899 13.7738 71.3965 13.7718 71.0941 14.2284C70.8304 14.6265 70.5185 14.9089 70.1292 15.1018C69.8158 15.2571 69.6988 15.2865 69.3053 15.309C67.7473 15.3978 66.7958 14.5174 66.6299 12.8335L66.5946 12.4761H70.1847C74.0682 12.4761 74.0229 12.4791 74.2027 12.2048C74.3238 12.0199 74.3515 11.6001 74.2819 11.0015C74.0325 8.85612 73.0157 7.2677 71.3977 6.49599C70.6763 6.15188 70.0871 6.01922 69.1735 5.99509C68.6649 5.98168 68.2923 5.99778 68.0532 6.04356ZM45.0272 6.18607C44.8307 6.28301 44.8058 6.51464 44.8219 8.09255L44.837 9.57722L45.1165 9.21766C45.7008 8.46577 46.7698 7.56207 47.6441 7.08088L48.0125 6.87811V6.6569C48.0125 6.4964 47.9788 6.39662 47.8899 6.29317L47.7674 6.15061L46.4546 6.14009C45.5727 6.13298 45.1043 6.14812 45.0272 6.18607ZM68.2723 8.25299C67.9429 8.36182 67.56 8.59258 67.3594 8.80318C67.0475 9.13048 66.7245 9.81769 66.63 10.3549L66.5964 10.5454H68.9392H71.282V10.4036C71.282 10.1733 71.1386 9.67939 70.973 9.33899C70.7634 8.90835 70.3999 8.54676 69.9781 8.34932C69.6753 8.20767 69.5764 8.18781 69.1003 8.17317C68.677 8.16017 68.5023 8.17699 68.2723 8.25299ZM20.3227 12.6524C19.8468 12.7328 19.1978 12.9094 18.9088 13.0372C18.5578 13.1924 18.3199 13.4131 18.1337 13.7566C17.9662 14.0655 17.9602 14.0957 17.9602 14.6353C17.9602 15.1181 17.9758 15.2234 18.0748 15.4087C18.2653 15.7651 18.4705 15.9559 18.8598 16.1383L19.2304 16.312L20.0941 16.3092C20.8913 16.3066 20.9895 16.2959 21.3682 16.17C21.8584 16.0071 22.2954 15.7338 22.6136 15.391L22.8468 15.1398L22.8823 14.3417C22.9216 13.4633 22.886 13.221 22.6776 12.9456C22.4413 12.6332 22.248 12.577 21.4298 12.5829C21.0305 12.5857 20.5323 12.617 20.3227 12.6524ZM2.23972e-05 15.5769C2.23972e-05 18.1608 0.00195317 18.1777 0.314517 18.3683C0.473136 18.4651 0.567789 18.4709 1.98286 18.4711C3.28778 18.4713 3.49848 18.4605 3.60136 18.3884C3.8336 18.2257 3.86134 18.0539 3.86134 16.7767V15.5871L3.5692 15.471C2.42178 15.0149 0.918101 14.0652 0.28266 13.3955C-0.0080565 13.089 2.23972e-05 13.0267 2.23972e-05 15.5769ZM35.6664 17.9434C34.4594 19.0315 33.0754 19.921 31.9732 20.3171C31.0668 20.6428 30.382 20.7354 29.4597 20.6572C28.9245 20.6117 28.7816 20.6146 28.6404 20.6736C28.3644 20.7889 28.3388 20.9174 28.3583 22.0898C28.3769 23.2007 28.3982 23.2954 28.6691 23.4729C29.0228 23.7047 30.8915 23.8099 31.5511 23.6353C32.4137 23.4067 33.053 23.0211 33.68 22.3509C34.5461 21.4252 35.2042 20.1868 35.9916 18.0013C36.0898 17.7289 36.1654 17.5065 36.1596 17.5071C36.1538 17.5078 35.9319 17.7041 35.6664 17.9434Z" fill="white"/>
</svg>
