<svg width="26" height="22" viewBox="0 0 26 22" fill="none" xmlns="http://www.w3.org/2000/svg">
<path d="M25.2843 2.8223C24.4791 3.15193 23.5128 3.48156 22.7076 3.64637C23.1907 3.64637 23.6739 2.8223 23.996 2.49267C24.3181 1.99822 24.6402 1.50378 24.8012 0.844521V0.679708H24.6402C23.6739 1.17415 22.7076 1.6686 21.5803 1.83341C21.4192 1.83341 21.4192 1.83341 21.4192 1.83341C21.2582 1.6686 21.2582 1.6686 21.0971 1.50378C20.614 1.17415 20.1308 0.844522 19.6477 0.514892C19.0035 0.185263 18.1983 0.0204484 17.3931 0.185263C16.5878 0.185263 15.9436 0.514892 15.2994 0.844521C14.6553 1.17415 14.0111 1.6686 13.5279 2.32785C13.0448 2.98711 12.7227 3.64637 12.5617 4.47045C12.4006 5.29452 12.4006 5.95378 12.5617 6.77785C12.5617 6.94267 12.5616 6.94267 12.4006 6.94267C8.21338 6.28341 4.67035 4.80008 1.77151 1.50378C1.61047 1.33897 1.61047 1.33897 1.44942 1.50378C0.161049 3.48156 0.805234 6.44822 2.4157 7.93155C2.57675 8.09637 2.89884 8.26118 3.05989 8.59081C2.89884 8.59081 1.93256 8.426 0.966278 7.93155C0.805231 7.93155 0.805234 7.93156 0.805234 8.09637C0.805234 8.26118 0.805234 8.426 0.805234 8.75563C0.966281 10.7334 2.4157 12.5464 4.18721 13.2056C4.34826 13.3704 4.67036 13.3704 4.8314 13.3704C4.34826 13.5353 4.02617 13.5353 2.89885 13.3704C2.7378 13.3704 2.73779 13.3704 2.73779 13.5353C3.54302 16.0075 5.4756 16.6667 6.92502 17.1612C7.08606 17.1612 7.2471 17.1612 7.56919 17.1612C7.08605 17.8204 5.47559 18.4797 4.67036 18.6445C3.22094 19.139 1.77151 19.3038 0.322089 19.139C0.161042 19.139 0 19.139 0 19.139V19.3038C0.322094 19.4686 0.644185 19.6334 0.966278 19.7982C1.93256 20.2927 2.89884 20.7871 3.86513 20.9519C9.17967 22.4353 14.9774 21.2815 19.0035 17.326C22.0634 14.1945 23.1907 9.90933 23.1907 5.45933C23.1907 5.29452 23.3518 5.1297 23.5128 5.1297C24.3181 4.47045 24.9623 3.81119 25.6064 2.98711C25.2843 3.15193 25.2843 2.98711 25.2843 2.8223Z" fill="black"/>
</svg>
